<svg width="800" height="144" viewBox="0 0 800 144" fill="none" xmlns="http://www.w3.org/2000/svg">
<path d="M609.605 94.5667L630.853 54.4782C628.404 54.1523 625.939 53.975 623.469 53.9473C621.034 53.9598 618.602 54.1372 616.191 54.4782L602.752 82.7791L589.631 54.4782C587.202 54.1429 584.753 53.9655 582.301 53.9473C579.619 53.9655 576.941 54.1428 574.28 54.4782L595.528 94.5667V116.337H609.658L609.605 94.5667Z" fill="white"/>
<path d="M174.074 54.5318C175.269 54.332 176.476 54.2078 177.686 54.1602H181.352H184.751C185.98 54.2077 187.204 54.3318 188.417 54.5318V86.3902C188.393 89.4576 188.535 92.524 188.842 95.5761C189.062 97.7326 189.655 99.8346 190.595 101.788C191.444 103.356 192.763 104.618 194.366 105.399C196.329 106.234 198.449 106.633 200.581 106.567C202.713 106.638 204.835 106.239 206.796 105.399C208.381 104.631 209.669 103.362 210.461 101.788C211.518 99.8624 212.203 97.755 212.48 95.5761C212.637 92.587 212.637 89.5917 212.48 86.6026V54.7442C213.711 54.5494 214.953 54.4253 216.198 54.3725H219.651H223.263C224.492 54.4175 225.716 54.5417 226.929 54.7442V89.4699C227.039 93.299 226.718 97.1283 225.972 100.886C225.303 104.16 223.844 107.222 221.723 109.806C219.567 112.401 216.763 114.379 213.595 115.541C209.417 117.004 205.006 117.687 200.581 117.558C196.174 117.683 191.781 117 187.62 115.541C184.444 114.365 181.626 112.39 179.439 109.806C177.379 107.198 175.96 104.142 175.296 100.886C174.475 97.1191 174.083 93.2716 174.127 89.4168L174.074 54.5318Z" fill="white"/>
<path d="M252.107 87.7162C250.047 87.056 248.04 86.2394 246.105 85.2737C244.445 84.4496 242.922 83.3751 241.589 82.0879C240.302 80.8322 239.304 79.3098 238.668 77.6277C237.942 75.6577 237.599 73.5671 237.659 71.4684C237.611 68.787 238.193 66.1319 239.358 63.7162C240.537 61.4601 242.252 59.5275 244.352 58.0879C246.629 56.4784 249.187 55.3079 251.895 54.6366C255.141 53.8154 258.48 53.4227 261.828 53.4684C264.98 53.4517 268.126 53.7183 271.23 54.2649C274.343 54.7868 277.414 55.5321 280.42 56.495C279.996 59.9356 278.933 63.2669 277.286 66.318L274.311 65.256C273.231 64.9104 272.131 64.6268 271.018 64.4065C269.902 64.4065 268.574 63.9817 267.14 63.8224C265.706 63.6631 264.059 63.8224 262.253 63.8224C261.121 63.7435 259.985 63.7435 258.853 63.8224C257.778 63.9558 256.735 64.2794 255.772 64.7782C254.838 65.2257 254.047 65.9243 253.488 66.7959C252.855 67.8522 252.541 69.0694 252.585 70.3003C252.573 71.2986 252.811 72.2841 253.276 73.1675C253.753 73.9439 254.386 74.6129 255.135 75.1321C255.968 75.6864 256.859 76.1493 257.791 76.5127L260.766 77.5746L266.662 79.5923C269.159 80.4419 271.39 81.3445 273.461 82.2472C275.41 83.0747 277.205 84.2234 278.773 85.6454C280.196 87.0293 281.318 88.6924 282.067 90.5304C282.916 92.8034 283.313 95.2203 283.235 97.6454C283.298 100.404 282.688 103.137 281.457 105.607C280.226 108.077 278.411 110.21 276.171 111.822C273.615 113.687 270.732 115.056 267.671 115.858C263.868 116.912 259.932 117.413 255.985 117.345C253.86 117.345 251.895 117.345 250.195 117.345C248.495 117.345 246.901 117.026 245.361 116.76C243.82 116.495 242.28 116.176 240.793 115.805C239.305 115.433 237.659 114.902 236.065 114.318C236.248 112.518 236.604 110.74 237.127 109.008C237.659 107.203 238.296 105.398 238.987 103.699C241.52 104.597 244.111 105.324 246.742 105.876C249.311 106.401 251.929 106.65 254.551 106.619C257.909 106.77 261.251 106.077 264.272 104.601C265.384 104.013 266.308 103.123 266.938 102.033C267.567 100.944 267.877 99.6992 267.831 98.4419C267.854 97.237 267.561 96.0471 266.981 94.9905C266.412 94.0937 265.672 93.3178 264.803 92.7074C263.883 92.0516 262.884 91.5163 261.828 91.1144L258.375 89.8401L252.107 87.7162Z" fill="white"/>
<path d="M355.903 54.4251C357.975 54.1596 360.419 53.8942 363.181 53.7349C365.943 53.5756 369.343 53.7349 373.486 53.7349C376.902 53.7193 380.313 53.9857 383.685 54.5313C386.624 54.9325 389.477 55.8113 392.131 57.1331C394.407 58.2599 396.348 59.9623 397.762 62.0711C399.211 64.3906 399.932 67.0905 399.833 69.8234C399.883 71.6401 399.558 73.4477 398.877 75.1331C398.322 76.6625 397.474 78.0693 396.381 79.2747C395.367 80.4202 394.185 81.4049 392.875 82.195C391.649 82.9592 390.271 83.4483 388.838 83.6287C390.542 83.851 392.217 84.2605 393.831 84.8499C395.752 85.4478 397.55 86.3827 399.143 87.611C400.77 88.9152 402.108 90.5424 403.074 92.3897C404.19 94.5727 404.738 97.0013 404.667 99.4517C404.8 102.683 403.968 105.88 402.277 108.638C400.623 111.047 398.372 112.986 395.743 114.266C392.791 115.729 389.612 116.681 386.341 117.08C382.612 117.621 378.848 117.887 375.08 117.876C372.052 117.876 369.077 117.876 366.102 117.876C363.128 117.876 359.781 116.815 355.903 116.337V54.4251ZM374.602 79.6464C376.133 79.6655 377.662 79.5411 379.17 79.2747C380.482 79.0425 381.742 78.5748 382.888 77.8942C383.924 77.2414 384.767 76.3251 385.332 75.2393C385.974 73.8991 386.284 72.4238 386.235 70.9384C386.312 69.5795 385.998 68.2268 385.33 67.041C384.661 65.8552 383.666 64.8859 382.463 64.2481C381.335 63.6543 380.113 63.2592 378.851 63.08C377.534 62.8684 376.201 62.7619 374.867 62.7614C373.328 62.6629 371.785 62.6629 370.246 62.7614V79.6464H374.602ZM370.299 106.991L373.486 107.257H376.779C378.239 107.258 379.697 107.134 381.135 106.885C382.6 106.686 384.019 106.237 385.332 105.558C386.626 104.923 387.74 103.974 388.572 102.797C389.474 101.45 389.92 99.8496 389.847 98.2304C389.906 96.6872 389.577 95.1537 388.891 93.7703C388.221 92.5971 387.249 91.6252 386.075 90.9561C384.744 90.1911 383.287 89.6697 381.773 89.4163C379.927 89.1306 378.063 88.9886 376.195 88.9915H370.299V106.991Z" fill="white"/>
<path d="M443.552 54.531C445.854 54.1775 448.181 54 450.51 54C452.928 53.9977 455.343 54.1752 457.735 54.531V105.504H482.223C482.223 106.513 482.542 107.416 482.595 108.319C482.648 109.221 482.595 110.071 482.595 110.867C482.595 111.664 482.595 112.673 482.595 113.575C482.519 114.501 482.395 115.423 482.223 116.336H443.552V54.531Z" fill="white"/>
<path d="M639.564 54.531C641.885 54.1773 644.229 53.9998 646.576 54C648.977 53.9996 651.373 54.177 653.747 54.531V105.504H678.236C678.236 106.513 678.554 107.416 678.608 108.319C678.661 109.221 678.608 110.071 678.608 110.867C678.608 111.664 678.608 112.673 678.608 113.575C678.532 114.501 678.408 115.423 678.236 116.336H639.564V54.531Z" fill="white"/>
<path d="M751.275 54.4251C753.347 54.1596 755.791 53.8942 758.553 53.7349C761.315 53.5756 764.715 53.7349 768.858 53.7349C772.292 53.7216 775.72 53.988 779.11 54.5313C782.03 54.9399 784.864 55.8186 787.503 57.1331C789.789 58.245 791.734 59.9505 793.134 62.0711C794.583 64.3906 795.305 67.0905 795.206 69.8234C795.272 71.6365 794.965 73.4439 794.303 75.1331C793.706 76.6427 792.863 78.0424 791.806 79.2747C790.785 80.4341 789.583 81.4203 788.247 82.195C787.021 82.9592 785.643 83.4484 784.21 83.6287C785.915 83.8448 787.59 84.2546 789.203 84.8499C791.116 85.4657 792.912 86.3991 794.515 87.611C796.113 88.9439 797.446 90.5649 798.446 92.3897C799.519 94.5862 800.047 97.0083 799.986 99.4517C800.119 102.683 799.287 105.88 797.596 108.638C795.962 111.045 793.728 112.985 791.115 114.266C788.144 115.729 784.948 116.68 781.66 117.08C777.931 117.623 774.167 117.889 770.399 117.876C767.371 117.876 764.396 117.876 761.474 117.876C758.553 117.876 755.153 117.452 751.435 117.027L751.275 54.4251ZM769.867 79.5402C771.398 79.5572 772.928 79.4327 774.436 79.1685C775.729 78.9269 776.97 78.4596 778.101 77.788C779.139 77.122 779.997 76.2101 780.598 75.1331C781.222 73.7884 781.514 72.3132 781.448 70.8322C781.512 69.4006 781.162 67.9808 780.438 66.7437C779.758 65.7179 778.849 64.8637 777.782 64.2481C776.635 63.6544 775.396 63.2594 774.117 63.08C772.8 62.8684 771.467 62.7619 770.133 62.7614C768.594 62.6656 767.051 62.6656 765.512 62.7614V79.6464L769.867 79.5402ZM765.512 106.885L768.699 107.151H771.992C773.452 107.152 774.909 107.028 776.348 106.779C777.829 106.58 779.266 106.131 780.598 105.452C781.882 104.803 782.993 103.856 783.838 102.691C784.74 101.344 785.186 99.7434 785.113 98.1242C785.183 96.574 784.834 95.0335 784.104 93.6641C783.45 92.4792 782.474 91.5035 781.288 90.8499C779.961 90.0763 778.502 89.5543 776.986 89.3101C775.141 89.0202 773.275 88.8782 771.408 88.8853H765.512V106.885Z" fill="white"/>
<path d="M305.387 103.964H328.812L332.743 116.336H347.883L325.732 54.5303C324.244 54.5303 322.863 54.2117 321.641 54.1055H317.764H313.673C312.398 54.1055 311.124 54.1055 309.742 54.5303L287.379 116.336H301.349L305.387 103.964ZM317.285 67.5922L325.466 93.5568H308.733L317.285 67.5922Z" fill="white"/>
<path d="M429.793 54.5312C427.384 54.1754 424.951 53.9979 422.516 54.0003C420.115 53.9921 417.718 54.1696 415.345 54.5312V116.337H429.793V54.5312Z" fill="white"/>
<path d="M506.498 54.5312C504.089 54.1754 501.657 53.9979 499.221 54.0003C496.821 53.9921 494.423 54.1696 492.05 54.5312V116.337H506.498V54.5312Z" fill="white"/>
<path d="M566.099 65.1507C566.481 63.4064 566.677 61.6266 566.683 59.841C566.683 58.055 566.487 56.2745 566.099 54.5312H516.432C516.014 56.2695 515.818 58.0535 515.848 59.841C515.829 61.6279 516.025 63.4106 516.432 65.1507H534.015V116.337H548.463V65.1507H566.099Z" fill="white"/>
<path d="M701.821 103.964H725.247L729.178 116.336H744.317L722.431 54.5303C720.944 54.5303 719.563 54.2117 718.341 54.1055H714.516H710.373C709.098 54.1055 707.823 54.1055 706.442 54.5303L684.132 116.336H698.049L701.821 103.964ZM713.72 67.5922L721.9 93.5568H705.167L713.72 67.5922Z" fill="white"/>
<path d="M58.4851 0L41.9116 25.3805L35.9622 19.4336L25.6569 9.07965L9.08351 25.5929L19.495 36L25.4445 41.9469L0 58.5133L84.6732 84.6372L58.4851 0Z" fill="white"/>
<path d="M143.424 88.3002C143.825 85.2898 144.038 82.2574 144.061 79.2206C144.038 76.1837 143.825 73.1513 143.424 70.1409H135.509C134.915 66.2721 133.899 62.4797 132.481 58.8312L139.121 54.9551C136.872 49.2382 133.813 43.8738 130.038 39.0259L123.451 42.8489C120.961 39.8287 118.186 37.0549 115.164 34.5657L118.936 27.9285C114.078 24.1668 108.713 21.11 103 18.8489L99.1751 25.486C95.517 24.0933 91.7256 23.0791 87.8605 22.4595V15.0259C84.8516 14.5987 81.8161 14.3858 78.777 14.3887C76.2551 14.3875 73.7356 14.5471 71.234 14.8666L73.6244 23.0436L78.1927 37.1675H78.9895C87.3944 37.1675 95.6106 39.6587 102.599 44.3263C109.587 48.9938 115.034 55.6279 118.251 63.3898C121.467 71.1516 122.309 79.6925 120.669 87.9324C119.029 96.1723 114.982 103.741 109.039 109.682C103.096 115.622 95.5235 119.668 87.28 121.307C79.0366 122.946 70.4921 122.105 62.727 118.89C54.9619 115.675 48.3249 110.23 43.6554 103.245C38.9859 96.2593 36.4935 88.0467 36.4935 79.6453C36.4671 79.2741 36.4671 78.9015 36.4935 78.5303L14.6612 71.3091C13.8505 76.9438 13.8505 82.6655 14.6612 88.3002H22.4699C23.0898 92.1636 24.1044 95.9534 25.4977 99.6099L18.8577 103.433C21.1074 109.15 24.1665 114.514 27.9412 119.362L34.5812 115.539C37.0294 118.597 39.8085 121.375 42.8679 123.822L39.0433 130.459C43.9009 134.221 49.266 137.278 54.9793 139.539L58.4321 132.743C62.0902 134.135 65.8815 135.15 69.7466 135.769V143.362C75.7725 144.212 81.8878 144.212 87.9136 143.362V135.716C91.8309 135.124 95.6761 134.128 99.3876 132.743L103.372 139.327C108.977 137.047 114.235 133.991 118.989 130.247L115.164 123.663C118.197 121.187 120.973 118.411 123.451 115.38L130.038 119.203C133.837 114.362 136.914 108.996 139.174 103.274L132.481 99.6099C133.899 95.9614 134.915 92.169 135.509 88.3002H143.424Z" fill="white"/>
</svg>
