<svg xmlns="http://www.w3.org/2000/svg" viewBox="0 0 160 160">
  <rect width="160" height="160" rx="24" fill="#32373c"/>
  <g transform="translate(8, 8)">
    <path d="M58.4851 0L41.9116 25.3805L35.9622 19.4336L25.6569 9.07965L9.08351 25.5929L19.495 36L25.4445 41.9469L0 58.5133L84.6732 84.6372L58.4851 0Z" fill="white"/>
    <path d="M143.424 88.3002C143.825 85.2898 144.038 82.2574 144.061 79.2206C144.038 76.1837 143.825 73.1513 143.424 70.1409H135.509C134.915 66.2721 133.899 62.4797 132.481 58.8312L139.121 54.9551C136.872 49.2382 133.813 43.8738 130.038 39.0259L123.451 42.8489C120.961 39.8287 118.186 37.0549 115.164 34.5657L118.936 27.9285C114.078 24.1668 108.713 21.11 103 18.8489L99.1751 25.486C95.517 24.0933 91.7256 23.0791 87.8605 22.4595V15.0259C84.8516 14.5987 81.8161 14.3858 78.777 14.3887C76.2551 14.3875 73.7356 14.5471 71.234 14.8666L73.6244 23.0436L78.1927 37.1675H78.9895C87.3944 37.1675 95.6106 39.6587 102.599 44.3263C109.587 48.9938 115.034 55.6279 118.251 63.3898C121.467 71.1516 122.309 79.6925 120.669 87.9324C119.029 96.1723 114.982 103.741 109.039 109.682C103.096 115.622 95.5235 119.668 87.28 121.307C79.0366 122.946 70.4921 122.105 62.727 118.89C54.9619 115.675 48.3249 110.23 43.6554 103.245C38.9859 96.2593 36.4935 88.0467 36.4935 79.6453C36.4671 79.2741 36.4671 78.9015 36.4935 78.5303L14.6612 71.3091C13.8505 76.9438 13.8505 82.6655 14.6612 88.3002H22.4699C23.0898 92.1636 24.1044 95.9534 25.4977 99.6099L18.8577 103.433C21.1074 109.15 24.1665 114.514 27.9412 119.362L34.5812 115.539C37.0294 118.597 39.8085 121.375 42.8679 123.822L39.0433 130.459C43.9009 134.221 49.266 137.278 54.9793 139.539L58.4321 132.743C62.0902 134.135 65.8815 135.15 69.7466 135.769V143.362C75.7725 144.212 81.8878 144.212 87.9136 143.362V135.716C91.8309 135.124 95.6761 134.128 99.3876 132.743L103.372 139.327C108.977 137.047 114.235 133.991 118.989 130.247L115.164 123.663C118.197 121.187 120.973 118.411 123.451 115.38L130.038 119.203C133.837 114.362 136.914 108.996 139.174 103.274L132.481 99.6099C133.899 95.9614 134.915 92.169 135.509 88.3002H143.424Z" fill="white"/>
  </g>
</svg>
